<?xml version="1.0" encoding="UTF-8" standalone="no"?>
<svg
   xmlns:dc="http://purl.org/dc/elements/1.1/"
   xmlns:cc="http://creativecommons.org/ns#"
   xmlns:rdf="http://www.w3.org/1999/02/22-rdf-syntax-ns#"
   xmlns:svg="http://www.w3.org/2000/svg"
   xmlns="http://www.w3.org/2000/svg"
   viewBox="0 0 134.33333 81.09333"
   height="81.09333"
   width="134.33333"
   xml:space="preserve"
   id="svg2"
   version="1.1"><metadata
     id="metadata8"><rdf:RDF><cc:Work
         rdf:about=""><dc:format>image/svg+xml</dc:format><dc:type
           rdf:resource="http://purl.org/dc/dcmitype/StillImage" /></cc:Work></rdf:RDF></metadata><defs
     id="defs6" /><g
     transform="matrix(1.3333333,0,0,-1.3333333,0,81.093333)"
     id="g10"><g
       transform="scale(0.1)"
       id="g12"><path
         id="path14"
         style="fill:#ffffff;fill-opacity:1;fill-rule:nonzero;stroke:none"
         d="M 332.18,195.711 657.453,401.172 429.301,168.746 Z" /><path
         id="path16"
         style="fill:none;stroke:#100f0d;stroke-width:20;stroke-linecap:butt;stroke-linejoin:miter;stroke-miterlimit:10;stroke-dasharray:none;stroke-opacity:1"
         d="M 676.465,539.996 C 750.848,516.832 878.375,459.848 940.898,394.922 1008.17,331.34 1025.7,245.16 936.879,192.047 770.766,98.0469 491.945,143.34 332.18,195.711" /><path
         id="path18"
         style="fill:none;stroke:#100f0d;stroke-width:20;stroke-linecap:butt;stroke-linejoin:miter;stroke-miterlimit:10;stroke-dasharray:none;stroke-opacity:1"
         d="M 676.465,539.996 C 516.656,592.375 237.926,637.66 71.7656,543.664 -17.1719,490.016 0.359375,404.895 67.75,340.781 129.996,276.035 258.105,218.555 332.18,195.711" /><path
         id="path20"
         style="fill:none;stroke:#100f0d;stroke-width:20;stroke-linecap:butt;stroke-linejoin:miter;stroke-miterlimit:10;stroke-dasharray:none;stroke-opacity:1"
         d="M 331.066,68.1914 C 256.684,91.3555 129.16,148.336 66.6328,213.262 c -67.265613,63.582 -84.8008,149.761 4.0195,202.879 166.1137,94 444.9337,48.703 604.6997,-3.664" /><path
         id="path22"
         style="fill:none;stroke:#100f0d;stroke-width:20;stroke-linecap:butt;stroke-linejoin:miter;stroke-miterlimit:10;stroke-dasharray:none;stroke-opacity:1"
         d="M 675.352,412.477 429.301,166.426 Z" /><path
         id="path24"
         style="fill:none;stroke:#100f0d;stroke-width:20;stroke-linecap:butt;stroke-linejoin:miter;stroke-miterlimit:10;stroke-dasharray:none;stroke-opacity:1"
         d="m 331.066,68.1914 c 159.809,-52.3789 438.543,-97.6641 604.7,-3.668 88.944,53.6446 71.404,138.7656 4.019,202.8826 -62.25,64.746 -190.355,122.227 -264.433,145.071" /><path
         id="path26"
         style="fill:none;stroke:#100f0d;stroke-width:20;stroke-linecap:butt;stroke-linejoin:miter;stroke-miterlimit:10;stroke-dasharray:none;stroke-opacity:1"
         d="M 676.465,539.996 C 750.848,516.832 878.375,459.848 940.898,394.922 1008.17,331.34 1025.7,245.16 936.879,192.047 770.766,98.0469 491.945,143.34 332.18,195.711" /><path
         id="path28"
         style="fill:none;stroke:#100f0d;stroke-width:20;stroke-linecap:butt;stroke-linejoin:miter;stroke-miterlimit:10;stroke-dasharray:none;stroke-opacity:1"
         d="M 676.465,539.996 C 516.656,592.375 237.926,637.66 71.7656,543.664 -17.1719,490.016 0.359375,404.895 67.75,340.781 129.996,276.035 258.105,218.555 332.18,195.711" /><path
         id="path30"
         style="fill:none;stroke:#100f0d;stroke-width:20;stroke-linecap:butt;stroke-linejoin:miter;stroke-miterlimit:10;stroke-dasharray:none;stroke-opacity:1"
         d="M 331.066,68.1914 C 256.684,91.3555 129.16,148.336 66.6328,213.262 c -67.265613,63.582 -84.8008,149.761 4.0195,202.879 166.1137,94 444.9337,48.703 604.6997,-3.664" /><path
         id="path32"
         style="fill:none;stroke:#100f0d;stroke-width:20;stroke-linecap:butt;stroke-linejoin:miter;stroke-miterlimit:10;stroke-dasharray:none;stroke-opacity:1"
         d="m 331.066,68.1914 c 159.809,-52.3789 438.543,-97.6641 604.7,-3.668 88.944,53.6446 71.404,138.7656 4.019,202.8826 -62.25,64.746 -190.355,122.227 -264.433,145.071" /><path
         id="path34"
         style="fill:#75bdea;fill-opacity:1;fill-rule:nonzero;stroke:none"
         d="M 332.18,195.711 C 491.945,143.34 770.766,98.0469 936.879,192.047 1025.7,245.16 1008.17,331.34 940.898,394.922 878.375,459.848 750.848,516.832 676.465,539.996 516.656,592.375 237.926,637.66 71.7656,543.664 -17.1719,490.016 0.359375,404.895 67.75,340.781 129.996,276.035 258.105,218.555 332.18,195.711 L 675.352,412.477 C 749.43,389.633 877.535,332.152 939.785,267.406 1007.17,203.289 1024.71,118.168 935.766,64.5234 769.609,-29.4727 490.875,15.8125 331.066,68.1914 256.684,91.3555 129.16,148.336 66.6328,213.262 c -67.265613,63.582 -84.8008,149.761 4.0195,202.879 166.1137,94 444.9337,48.703 604.6997,-3.664 L 332.18,195.711" /><path
         id="path36"
         style="fill:none;stroke:#100f0d;stroke-width:20;stroke-linecap:butt;stroke-linejoin:miter;stroke-miterlimit:10;stroke-dasharray:none;stroke-opacity:1"
         d="M 332.18,195.711 C 491.945,143.34 770.766,98.0469 936.879,192.047 1025.7,245.16 1008.17,331.34 940.898,394.922 878.375,459.848 750.848,516.832 676.465,539.996 516.656,592.375 237.926,637.66 71.7656,543.664 -17.1719,490.016 0.359375,404.895 67.75,340.781 129.996,276.035 258.105,218.555 332.18,195.711 L 675.352,412.477 C 749.43,389.633 877.535,332.152 939.785,267.406 1007.17,203.289 1024.71,118.168 935.766,64.5234 769.609,-29.4727 490.875,15.8125 331.066,68.1914 256.684,91.3555 129.16,148.336 66.6328,213.262 c -67.265613,63.582 -84.8008,149.761 4.0195,202.879 166.1137,94 444.9337,48.703 604.6997,-3.664 L 332.18,195.711" /></g></g></svg>